<svg xmlns="http://www.w3.org/2000/svg" viewBox="0 0 300 300" width="200" height="200"><defs><style>.cls-1{fill:#f2bc79;}.cls-2{fill:#63b6bf;}.cls-3{fill:#fff;}.cls-4{fill:#606060;}</style></defs><title>MUDA YA LOGO</title><g id="Capa_2_copia" data-name="Capa 2 copia"><path class="cls-1" d="M128.49,118.7a19.59,19.59,0,0,1,6.44,7.14,20.8,20.8,0,0,1,0,19.55,19.51,19.51,0,0,1-6.44,7.19,15,15,0,0,1-8.45,2.65H104.88v16.46a5.38,5.38,0,0,1-1.39,3.84A4.82,4.82,0,0,1,99.83,177a4.62,4.62,0,0,1-3.57-1.53,5.39,5.39,0,0,1-1.39-3.79V121.35a5.19,5.19,0,0,1,5.31-5.31H120A15,15,0,0,1,128.49,118.7Zm-5.19,25.21a10.24,10.24,0,0,0,2.62-3.61,11.36,11.36,0,0,0,0-9.32,9.94,9.94,0,0,0-2.62-3.58,5.11,5.11,0,0,0-3.26-1.35H104.88V145.3H120A5,5,0,0,0,123.3,143.91Z"/><path class="cls-1" d="M197,170.3a4.71,4.71,0,0,1,.65,2.35,4.53,4.53,0,0,1-1,2.88,4.94,4.94,0,0,1-4,1.56,7.8,7.8,0,0,1-3.83-1q-6.27-3.57-6.27-14.55a6.33,6.33,0,0,0-2.05-5,8.52,8.52,0,0,0-5.88-1.83H158.27v16.89a5.73,5.73,0,0,1-1.26,3.84,4.2,4.2,0,0,1-3.35,1.48,6.74,6.74,0,0,1-4.4-1.53,4.69,4.69,0,0,1-1.87-3.79V121.35A5.19,5.19,0,0,1,152.7,116h25.08a16.12,16.12,0,0,1,8.54,2.44,18,18,0,0,1,6.4,6.7,19.22,19.22,0,0,1,2.4,9.58,17,17,0,0,1-2.36,8.5,18.63,18.63,0,0,1-6.09,6.57,13.35,13.35,0,0,1,6,10.28,15,15,0,0,1,.26,2.7,26.45,26.45,0,0,0,.7,3.88,2.85,2.85,0,0,0,1.56,1.78A5.22,5.22,0,0,1,197,170.3Zm-16.59-26a11.22,11.22,0,0,0,2.43-4,14.69,14.69,0,0,0,1-5.35,10.45,10.45,0,0,0-1-4.49,9.27,9.27,0,0,0-2.43-3.27,4.8,4.8,0,0,0-3.05-1.22H158.27v19.78h19.08A4.38,4.38,0,0,0,180.4,144.35Z"/><path class="cls-1" d="M255,170.21l-21.43-51a5.18,5.18,0,0,0-4.87-3.48,4.59,4.59,0,0,0-3.14.78,5.76,5.76,0,0,0-2.09,2.7l-21.69,52.09a5.89,5.89,0,0,0-.26,1.65,4.17,4.17,0,0,0,4.62,4.53,4.58,4.58,0,0,0,2.74-.91,5.34,5.34,0,0,0,1.87-2.57l17.42-41,17.6,40.93a6,6,0,0,0,2,2.61,4.55,4.55,0,0,0,2.83,1A4.75,4.75,0,0,0,254,176a4.94,4.94,0,0,0,1.48-3.71A5.91,5.91,0,0,0,255,170.21Z"/><path class="cls-2" d="M259.06,203c-1.63-4.17-6.19-7-11.32-7H223.41c-6.34,0-11.47,4.4-11.47,9.82v47a5.74,5.74,0,0,0,5.91,5.56h48.21a3.83,3.83,0,0,0,3.94-3.7V228.92a3.18,3.18,0,0,0-.16-1Z"/><path class="cls-3" d="M229,229.2h24.83a3.52,3.52,0,0,0,3.35-4.6l-4.94-15.34a7,7,0,0,0-6.65-4.95H231.3a6.86,6.86,0,0,0-6.74,7v13.48A4.44,4.44,0,0,0,229,229.2Z"/><path class="cls-2" d="M146,181.37a4.7,4.7,0,0,1,1.61,3.57,5.92,5.92,0,0,1-.52,2.35l-21.52,50.34a5.76,5.76,0,0,1-2.17,2.53,5.23,5.23,0,0,1-7.67-2.44L94.24,187.2A4.82,4.82,0,0,1,93.8,185a4.65,4.65,0,0,1,1.75-3.79,5.57,5.57,0,0,1,3.57-1.44,4.93,4.93,0,0,1,2.78.87,5.51,5.51,0,0,1,2,2.53l17.5,41.19,16-41.19a5.51,5.51,0,0,1,2-2.44,4.94,4.94,0,0,1,2.79-.87A5.42,5.42,0,0,1,146,181.37Z"/><path class="cls-2" d="M201.63,234.24l-21.42-51a5.25,5.25,0,0,0-2-2.57,5.15,5.15,0,0,0-2.92-.92,4.61,4.61,0,0,0-3.14.79,5.82,5.82,0,0,0-2.09,2.7l-21.69,52.08a5.9,5.9,0,0,0-.26,1.66,4.6,4.6,0,0,0,7.36,3.61,5.38,5.38,0,0,0,1.88-2.57l17.41-41,17.6,40.93a6.19,6.19,0,0,0,2,2.62,4.55,4.55,0,0,0,2.83,1,4.74,4.74,0,0,0,3.4-1.44,5,5,0,0,0,1.48-3.7A5.85,5.85,0,0,0,201.63,234.24Z"/><rect class="cls-2" x="62.82" y="255.73" width="48.46" height="10.39" rx="5.19" transform="translate(-94.71 54.47) rotate(-22.91)"/><rect class="cls-2" x="100" y="248.18" width="102.14" height="10.39" rx="5.19"/><circle class="cls-4" cx="241.11" cy="260.41" r="13.48"/><circle class="cls-3" cx="241.11" cy="260.41" r="6.74"/><circle class="cls-4" cx="175.36" cy="260.41" r="13.48"/><circle class="cls-3" cx="175.36" cy="260.41" r="6.74"/><circle class="cls-4" cx="121" cy="260.41" r="13.48"/><circle class="cls-3" cx="121" cy="260.41" r="6.74"/></g></svg>